<svg xmlns="http://www.w3.org/2000/svg" width="200" height="31.56"><defs><style>.b409b8e2-0dea-4068-a4e3-0cf55dc4bd27{fill:#f7f7f7}</style></defs><g id="a7248f64-f946-4bf6-9f4d-dde605af0879" data-name="레이어 2"><g id="b73b969a-83e8-4857-9a9e-98f8353d13fa" data-name="레이어 1"><path class="b409b8e2-0dea-4068-a4e3-0cf55dc4bd27" d="M48.18 19.57a2 2 0 0 1-2 2h-14.5a4.26 4.26 0 0 0 4.49 3.83 4.57 4.57 0 0 0 3.69-1.62 1.11 1.11 0 0 1 .87-.44h5.39a1.08 1.08 0 0 1 1 1.52 11.65 11.65 0 0 1-10.94 6.64 11.55 11.55 0 0 1-12-11.74c0-6.75 5.05-11.72 12-11.72 7.1 0 12 5.07 12 11.52zm-16.51-2.26h9.18a4.56 4.56 0 0 0-4.68-3.5 4.4 4.4 0 0 0-4.5 3.5zM17.61 8.54h4.52a1.19 1.19 0 0 1 1.06 1.64l-7.57 19.56A2 2 0 0 1 13.76 31H9.51a2 2 0 0 1-1.86-1.24L.09 10.18a1.19 1.19 0 0 1 1.1-1.64h4.47a2 2 0 0 1 1.86 1.38l4.12 12.92 4.11-12.92a2 2 0 0 1 1.86-1.38zM62.37 14.47h-2.83v7.09c0 2.34.84 3.54 3.1 3.54h.13A1.12 1.12 0 0 1 64 26.25v3.8a1.13 1.13 0 0 1-1 1.15 13 13 0 0 1-2.12.18c-6.91 0-8.5-4.69-8.5-9.12v-7.79h-1.6a1.58 1.58 0 0 1-1.59-1.59v-2.74a1.59 1.59 0 0 1 1.59-1.6h1.6V5.4a1.56 1.56 0 0 1 1.55-1.55H58a1.57 1.57 0 0 1 1.54 1.55v3.14h2.83a1.59 1.59 0 0 1 1.63 1.6v2.74a1.58 1.58 0 0 1-1.63 1.59zM86.63 24c0 4.74-3.45 7.52-10 7.52-4 0-7.83-1.1-9.29-4.11a1.15 1.15 0 0 1 .7-1.64l4.39-1.37a1.26 1.26 0 0 1 1.32.44 3.25 3.25 0 0 0 2.79 1.11c1.51 0 2.7-.45 2.7-1.64 0-1.51-2.34-1.46-5-2-4.33-.93-6.63-2.47-6.63-6.9 0-4.69 4-7.35 9.6-7.35 3.36 0 6.73 1.42 8.14 4.34a1.23 1.23 0 0 1-.8 1.6l-3.81 1a1.16 1.16 0 0 1-1.19-.49 2.77 2.77 0 0 0-2.31-1c-1.41 0-2.7.4-2.7 1.68 0 1.46 2.39 1.55 4.16 1.91 5.67 1.18 7.93 2.77 7.93 6.9zM104.16 23.19a1.14 1.14 0 0 1 1.46-.17l4.25 2.47a1.22 1.22 0 0 1 .31 1.78 12.06 12.06 0 0 1-9.47 4.24c-7 0-12-5.09-12-11.72s5-11.79 12-11.79a12.07 12.07 0 0 1 9.47 4.25 1.2 1.2 0 0 1-.31 1.77l-4.25 2.52a1.2 1.2 0 0 1-1.46-.22 4.81 4.81 0 0 0-3.45-1.32 4.66 4.66 0 0 0-4.78 4.83 4.65 4.65 0 0 0 4.78 4.78 4.82 4.82 0 0 0 3.45-1.42zM135.32 17v12.39a1.57 1.57 0 0 1-1.55 1.61h-4a1.58 1.58 0 0 1-1.59-1.59V18.9c0-2.61-1.59-3.85-3.58-3.85s-3.6 1.33-3.6 3.85v10.49a1.58 1.58 0 0 1-1.61 1.61h-4a1.54 1.54 0 0 1-1.55-1.59V1.59A1.55 1.55 0 0 1 115.36 0h4A1.59 1.59 0 0 1 121 1.59v9A7.63 7.63 0 0 1 127.09 8c5.62 0 8.23 4.44 8.23 9zM163 19.79c0 6.63-5 11.77-12 11.77a11.62 11.62 0 0 1-12-11.77C138.91 13.1 144 8 151 8s12 5.1 12 11.79zm-7.22 0a4.8 4.8 0 1 0-9.6 0 4.8 4.8 0 0 0 9.6 0zM189.28 19.79c0 6.63-5 11.77-12 11.77a11.61 11.61 0 0 1-12-11.77c0-6.69 5-11.78 12-11.78s12 5.09 12 11.78zm-7.21 0a4.81 4.81 0 1 0-9.61 0 4.81 4.81 0 0 0 9.61 0zM194.38 0h4.07A1.58 1.58 0 0 1 200 1.59v27.8a1.57 1.57 0 0 1-1.55 1.61h-4.07a1.57 1.57 0 0 1-1.55-1.59V1.59A1.58 1.58 0 0 1 194.38 0z"/></g></g></svg>